{"title":"Naam Shabana 2017 Hindi 720p DvDRip x264 AAC { TaRa }.mkv","magnet":"magnet:?xt=urn:btih:16a1918e361dfd28a8ed990a58270c3315277a92&dn=Naam+Shabana+2017+Hindi+720p+DvDRip+x264+AAC+%7B+TaRa+%7D.mkv&tr=udp%3A%2F%2Ftracker.leechers-paradise.org%3A6969&tr=udp%3A%2F%2Fzer0day.ch%3A1337&tr=udp%3A%2F%2Fopen.demonii.com%3A1337&tr=udp%3A%2F%2Ftracker.coppersurfer.tk%3A6969&tr=udp%3A%2F%2Fexodus.desync.com%3A6969","uploader":"SkTaRa","categoryP":"video","categoryS":"movies_dvdr","size":"1284271096","seeders":"3","leechers":"150","description":"===================================================================\r\nGeneral\r\nComplete name               : Naam Shabana 2017 Hindi 720p DvDRip x264 AAC { TaRa }.mkv\r\nFormat                      : Matroska\r\nFormat version              : Version 4 / Version 2\r\nFile size                   : 1.20 GiB\r\nDuration                    : 2h 27mn\r\nOverall bit rate            : 1 159 Kbps\r\n===================================================================\r\nVideo\r\nID                          : 1\r\nFormat                      : AVC\r\nFormat/Info                 : Advanced Video Codec\r\nFormat profile              : <a class=\"__cf_email__\" href=\"/cdn-cgi/l/email-protection\" data-cfemail=\"84ccede3ecc4c8b0aab5\">[email&#xA0;protected]</a><script data-cfhash=\"f9e31\" type=\"text/javascript\">/* <![CDATA[ */!function(t,e,r,n,c,a,p){try{t=document.currentScript||function(){for(t=document.getElementsByTagName('script'),e=t.length;e--;)if(t[e].getAttribute('data-cfhash'))return t[e]}();if(t&&(c=t.previousSibling)){p=t.parentNode;if(a=c.getAttribute('data-cfemail')){for(e='',r='0x'+a.substr(0,2)|0,n=2;a.length-n;n+=2)e+='%'+('0'+('0x'+a.substr(n,2)^r).toString(16)).slice(-2);p.replaceChild(document.createTextNode(decodeURIComponent(e)),c)}p.removeChild(t)}}catch(u){}}()/* ]]> */</script>\r\nFormat settings, CABAC      : Yes\r\nFormat settings, ReFrames   : 8 frames\r\nCodec ID                    : V_MPEG4/ISO/AVC\r\nDuration                    : 2h 27mn\r\nBit rate                    : 1 000 Kbps\r\nWidth                       : 1 280 pixels\r\nHeight                      : 544 pixels\r\nDisplay aspect ratio        : 2.35:1\r\nFrame rate mode             : Constant\r\nFrame rate                  : 23.976 (24000/1001) fps\r\nColor space                 : YUV\r\nChroma subsampling          : 4:2:0\r\nBit depth                   : 8 bits\r\nScan type                   : Progressive\r\nBits/(Pixel*Frame)          : 0.060\r\nStream size                 : 1.03 GiB (86%)\r\nTitle                       : .....::::: TaRa :::::......\r\nLanguage                    : Hindi\r\nDefault                     : Yes\r\nForced                      : No\r\n===================================================================\r\nAudio\r\nID                          : 2\r\nFormat                      : AAC\r\nFormat/Info                 : Advanced Audio Codec\r\nFormat profile              : LC\r\nCodec ID                    : A_AAC\r\nDuration                    : 2h 27mn\r\nBit rate                    : 158 Kbps\r\nChannel(s)                  : 2 channels\r\nChannel positions           : Front: L R\r\nSampling rate               : 44.1 KHz\r\nFrame rate                  : 43.066 fps (1024 spf)\r\nCompression mode            : Lossy\r\nStream size                 : 166 MiB (14%)\r\nTitle                       : .....::::: TaRa :::::......\r\nLanguage                    : Hindi\r\nDefault                     : Yes\r\nForced                      : No\r\n=================================================================== <a href=\"\nhttps://www.jiopic.com/image/Xy3y7\" rel=\"nofollow\" target=\"_NEW\">\nhttps://www.jiopic.com/image/Xy3y7</a> <a href=\"\nhttps://www.jiopic.com/image/XykPI\" rel=\"nofollow\" target=\"_NEW\">\nhttps://www.jiopic.com/image/XykPI</a> <a href=\"\nhttps://www.jiopic.com/image/XfbEL\" rel=\"nofollow\" target=\"_NEW\">\nhttps://www.jiopic.com/image/XfbEL</a> <a href=\"\nhttps://www.jiopic.com/image/XyXXo\" rel=\"nofollow\" target=\"_NEW\">\nhttps://www.jiopic.com/image/XyXXo</a> <a href=\"\nhttps://www.jiopic.com/image/XfasR\" rel=\"nofollow\" target=\"_NEW\">\nhttps://www.jiopic.com/image/XfasR</a> <a href=\"\nhttps://www.jiopic.com/image/Xfwe6\" rel=\"nofollow\" target=\"_NEW\">\nhttps://www.jiopic.com/image/Xfwe6</a> <a href=\"\nhttps://www.jiopic.com/image/XyYA3\" rel=\"nofollow\" target=\"_NEW\">\nhttps://www.jiopic.com/image/XyYA3</a> <a href=\"\nhttps://www.jiopic.com/image/XyS9E\" rel=\"nofollow\" target=\"_NEW\">\nhttps://www.jiopic.com/image/XyS9E</a> <a href=\"\nhttps://www.jiopic.com/image/XyjzS\" rel=\"nofollow\" target=\"_NEW\">\nhttps://www.jiopic.com/image/XyjzS</a> <a href=\"\nhttps://www.jiopic.com/image/XysDe\" rel=\"nofollow\" target=\"_NEW\">\nhttps://www.jiopic.com/image/XysDe</a> <a href=\"\nhttps://www.jiopic.com/image/Xy132\" rel=\"nofollow\" target=\"_NEW\">\nhttps://www.jiopic.com/image/Xy132</a> <a href=\"\nhttps://www.jiopic.com/image/XyBdz\" rel=\"nofollow\" target=\"_NEW\">\nhttps://www.jiopic.com/image/XyBdz</a> <a href=\"\nhttps://www.jiopic.com/image/XyzXF\" rel=\"nofollow\" target=\"_NEW\">\nhttps://www.jiopic.com/image/XyzXF</a> <a href=\"\nhttps://www.jiopic.com/image/Xy8E4\" rel=\"nofollow\" target=\"_NEW\">\nhttps://www.jiopic.com/image/Xy8E4</a> <a href=\"\nhttps://www.jiopic.com/image/XyLhi\" rel=\"nofollow\" target=\"_NEW\">\nhttps://www.jiopic.com/image/XyLhi</a> <a href=\"\nhttps://www.jiopic.com/image/Xy5At\" rel=\"nofollow\" target=\"_NEW\">\nhttps://www.jiopic.com/image/Xy5At</a> <a href=\"\nhttps://www.jiopic.com/image/Xyg9v\" rel=\"nofollow\" target=\"_NEW\">\nhttps://www.jiopic.com/image/Xyg9v</a> <a href=\"\nhttps://www.jiopic.com/image/XyVyf\" rel=\"nofollow\" target=\"_NEW\">\nhttps://www.jiopic.com/image/XyVyf</a> <a href=\"\nhttps://www.jiopic.com/image/XyAJ1\" rel=\"nofollow\" target=\"_NEW\">\nhttps://www.jiopic.com/image/XyAJ1</a> <a href=\"\nhttps://www.jiopic.com/image/XyqzD\" rel=\"nofollow\" target=\"_NEW\">\nhttps://www.jiopic.com/image/XyqzD</a> <a href=\"\nhttps://www.jiopic.com/image/XyNKj\" rel=\"nofollow\" target=\"_NEW\">\nhttps://www.jiopic.com/image/XyNKj</a> <a href=\"\nhttps://www.jiopic.com/image/XyM3Q\" rel=\"nofollow\" target=\"_NEW\">\nhttps://www.jiopic.com/image/XyM3Q</a> <a href=\"\nhttps://www.jiopic.com/image/XyOhn\" rel=\"nofollow\" target=\"_NEW\">\nhttps://www.jiopic.com/image/XyOhn</a> <a href=\"\nhttps://www.jiopic.com/image/XyKYN\" rel=\"nofollow\" target=\"_NEW\">\nhttps://www.jiopic.com/image/XyKYN</a> <a href=\"\nhttps://www.jiopic.com/image/XyQVY\" rel=\"nofollow\" target=\"_NEW\">\nhttps://www.jiopic.com/image/XyQVY</a> <a href=\"\nhttps://www.jiopic.com/image/XyWdG\" rel=\"nofollow\" target=\"_NEW\">\nhttps://www.jiopic.com/image/XyWdG</a> <a href=\"\nhttps://www.jiopic.com/image/XyoFA\" rel=\"nofollow\" target=\"_NEW\">\nhttps://www.jiopic.com/image/XyoFA</a>","last_updated":"2017-06-06T12:01:20.962Z","parsed":{"xt":"urn:btih:16a1918e361dfd28a8ed990a58270c3315277a92","dn":"Naam Shabana 2017 Hindi 720p DvDRip x264 AAC { TaRa }.mkv","tr":["udp://exodus.desync.com:6969","udp://open.demonii.com:1337","udp://tracker.coppersurfer.tk:6969","udp://tracker.leechers-paradise.org:6969","udp://zer0day.ch:1337"],"infoHash":"16a1918e361dfd28a8ed990a58270c3315277a92","infoHashBuffer":{"type":"Buffer","data":[22,161,145,142,54,29,253,40,168,237,153,10,88,39,12,51,21,39,122,146]},"name":"Naam Shabana 2017 Hindi 720p DvDRip x264 AAC { TaRa }.mkv","announce":["udp://exodus.desync.com:6969","udp://open.demonii.com:1337","udp://tracker.coppersurfer.tk:6969","udp://tracker.leechers-paradise.org:6969","udp://zer0day.ch:1337"],"urlList":[]}}